# xmcd
#
# Track frame offsets:
#	150
#	17240
#	31547
#	51774
#	71140
#	87579
#	106382
#	120541
#	135339
#	150911
#	168235
#	187326
#	204884
#	224277
#	240157
#	255213
#	270976
#
# Disc length: 3862 seconds
#
# Revision: 1
# Processed by: cddbd v1.5.1PL0 Copyright (c) Steve Scherf et al.
# Submitted via: CDex 1.50Beta5
#
DISCID=d50f1411
DTITLE=さまざまなアーティスト - the greatest hits of SHISEIDO
DYEAR=1900
DGENRE=Other
TTITLE0=小椋桂/揺れるまなざし
TTITLE1=南沙織/春の予感-I've been mellow-
TTITLE2=矢沢永吉/時間よ止まれ
TTITLE3=南こうせつ/夢一夜
TTITLE4=ツイスト/燃えろいい女
TTITLE5=松田聖子/風は秋色
TTITLE6=桃井かおり/メイク23秒
TTITLE7=ナイアガラトライアングル/A面で恋をして
TTITLE8=ラッツ&スター/め組みのひと
TTITLE9=高見知佳/くちびるヌード
TTITLE10=プリンセスプリンセス/GO AWAY BOY
TTITLE11=今井美樹/彼女とTIP ON DUO
TTITLE12=Dream Come True/go for it
TTITLE13=Wink/咲き誇れ愛しさよ
TTITLE14=Puffy/これが私の生きる道
TTITLE15=Chara/やさしい気持ち
TTITLE16=LA'rc-en-Ciel/NEO UNIVERSE
EXTD=
EXTT0=
EXTT1=
EXTT2=
EXTT3=
EXTT4=
EXTT5=
EXTT6=
EXTT7=
EXTT8=
EXTT9=
EXTT10=
EXTT11=
EXTT12=
EXTT13=
EXTT14=
EXTT15=
EXTT16=
PLAYORDER=
